<svg width="160" height="160" viewBox="0 0 160 160" fill="none" xmlns="http://www.w3.org/2000/svg">
<g filter="url(#filter0_dd_94_785)">
<path d="M66.4594 134C65.4506 134 64.5998 133.249 64.4748 132.248L62.6839 117.899C62.5929 117.17 62.1059 116.559 61.4416 116.246C60.8696 115.977 60.3164 115.678 59.7821 115.349C59.232 115.012 58.6885 114.66 58.1514 114.296C57.573 113.903 56.8353 113.818 56.1921 114.092L42.9756 119.726C42.0419 120.124 40.9582 119.759 40.4548 118.878L26.8672 95.0943C26.3705 94.225 26.5932 93.1224 27.3882 92.5139L38.8222 83.7627C39.3863 83.331 39.6651 82.6327 39.6404 81.9228C39.6358 81.7915 39.6335 81.6617 39.6335 81.5335V78.4665C39.6335 78.3383 39.6358 78.2085 39.6404 78.0772C39.6651 77.3673 39.3863 76.669 38.8222 76.2373L27.3896 67.4871C26.594 66.8782 26.3717 65.7745 26.8696 64.9051L40.4569 41.1784C40.9597 40.3004 42.0389 39.9362 42.9709 40.33L56.2573 45.9443C56.8993 46.2157 57.634 46.1296 58.2126 45.7409C58.7538 45.3774 59.304 45.0294 59.8632 44.6968C60.3984 44.3795 60.9374 44.0888 61.4803 43.8249C62.1251 43.5114 62.5908 42.9084 62.6793 42.197L64.4755 27.7532C64.6001 26.7518 65.4511 26 66.4602 26H93.5398C94.5489 26 95.3999 26.7518 95.5245 27.7532L97.3166 42.1641C97.4072 42.893 97.8941 43.5054 98.5599 43.8157C99.1314 44.0821 99.6841 44.3758 100.218 44.6968C100.768 45.0287 101.312 45.376 101.849 45.7387C102.428 46.1293 103.164 46.2148 103.807 45.9422L117.028 40.3333C117.96 39.9377 119.041 40.3016 119.544 41.1806L133.129 64.9034C133.628 65.7735 133.405 66.8782 132.608 67.4868L121.148 76.2374C120.583 76.669 120.304 77.3679 120.328 78.0787C120.333 78.2095 120.335 78.3387 120.335 78.4665V80C120.335 80.5328 120.33 81.0439 120.319 81.5335C120.318 81.6116 120.314 81.6902 120.31 81.7695C120.261 82.5657 120.515 83.3791 121.149 83.8632L132.477 92.5134C133.274 93.1219 133.497 94.2264 132.999 95.0965L119.386 118.876C118.881 119.758 117.795 120.121 116.861 119.721L103.747 114.096C103.103 113.819 102.363 113.904 101.782 114.296C101.243 114.661 100.694 115.012 100.137 115.349C99.6011 115.674 99.0615 115.97 98.5181 116.237C97.8749 116.553 97.409 117.155 97.3203 117.866L95.5252 132.248C95.4002 133.249 94.5494 134 93.5406 134H66.4594ZM80.1676 98.5235C85.2291 98.5235 89.5489 96.7153 93.1269 93.0988C96.7049 89.4823 98.4939 85.116 98.4939 80C98.4939 74.884 96.7049 70.5177 93.1269 66.9012C89.5489 63.2847 85.2291 61.4765 80.1676 61.4765C75.0397 61.4765 70.7033 63.2847 67.1584 66.9012C63.6136 70.5177 61.8412 74.884 61.8412 80C61.8412 85.116 63.6136 89.4823 67.1584 93.0988C70.7033 96.7153 75.0397 98.5235 80.1676 98.5235Z" fill="url(#paint0_linear_94_785)"/>
<path d="M117.027 40.333C117.96 39.9375 119.041 40.3018 119.544 41.1807L133.13 64.9033C133.628 65.7734 133.404 66.8778 132.607 67.4863L121.148 76.2373C120.583 76.6689 120.303 77.3684 120.328 78.0791C120.333 78.2097 120.335 78.3392 120.335 78.4668V80C120.335 80.5327 120.33 81.0437 120.319 81.5332C120.318 81.6113 120.314 81.6903 120.31 81.7695C120.261 82.5657 120.515 83.3792 121.149 83.8633L132.477 92.5137C133.273 93.1222 133.497 94.2265 132.999 95.0967L119.386 118.876C118.881 119.758 117.795 120.121 116.861 119.721L103.747 114.096C103.103 113.819 102.363 113.904 101.782 114.296C101.243 114.66 100.694 115.012 100.137 115.35C99.6012 115.674 99.0618 115.97 98.5186 116.236C97.8754 116.552 97.4091 117.155 97.3203 117.866L95.5254 132.248C95.4003 133.249 94.5495 134 93.541 134H66.459C65.4505 134 64.5997 133.249 64.4746 132.248L62.6836 117.898C62.5926 117.17 62.1056 116.559 61.4414 116.246C61.4168 116.234 61.3927 116.222 61.3682 116.21L62 116L78 120.5L97 116L102 113.5L113.5 102L120 84.5L119.5 79.5V77L114 59.75L102 47L103.149 46.0957C103.373 46.0818 103.595 46.0323 103.807 45.9424L117.027 40.333ZM56 111.5L57.3447 113.965C56.9615 113.895 56.5613 113.935 56.1924 114.092L42.9756 119.726C42.042 120.124 40.9586 119.759 40.4551 118.878L40.0605 118.188L51 113.5L44 98L56 111.5ZM93.54 26C94.549 26.0001 95.3998 26.7517 95.5244 27.7529L97.3164 42.1641C97.3307 42.2793 97.3564 42.3913 97.3896 42.5H92.5L82 39.5L92.5 39L91 26H93.54Z" fill="#006D92"/>
<path d="M80 39C102.644 39 121 57.3563 121 80C121 102.644 102.644 121 80 121C57.3563 121 39 102.644 39 80C39 57.3563 57.3563 39 80 39ZM80 61C69.5066 61 61 69.5066 61 80C61 90.4934 69.5066 99 80 99C90.4934 99 99 90.4934 99 80C99 69.5066 90.4934 61 80 61Z" fill="url(#paint1_linear_94_785)"/>
<circle cx="80" cy="80" r="19.5" stroke="#006D92" stroke-width="3"/>
<path d="M37 57L43 46" stroke="#BAE3E4" stroke-width="3" stroke-linecap="round"/>
<path d="M32.5 95.5L35 99.5" stroke="#BAE3E4" stroke-width="3" stroke-linecap="round"/>
</g>
<defs>
<filter id="filter0_dd_94_785" x="-23.7" y="-23.7" width="207.4" height="207.4" filterUnits="userSpaceOnUse" color-interpolation-filters="sRGB">
<feFlood flood-opacity="0" result="BackgroundImageFix"/>
<feColorMatrix in="SourceAlpha" type="matrix" values="0 0 0 0 0 0 0 0 0 0 0 0 0 0 0 0 0 0 127 0" result="hardAlpha"/>
<feOffset dx="1" dy="1"/>
<feGaussianBlur stdDeviation="1.5"/>
<feComposite in2="hardAlpha" operator="out"/>
<feColorMatrix type="matrix" values="0 0 0 0 0.0313726 0 0 0 0 0.301961 0 0 0 0 0.427451 0 0 0 0.5 0"/>
<feBlend mode="normal" in2="BackgroundImageFix" result="effect1_dropShadow_94_785"/>
<feColorMatrix in="SourceAlpha" type="matrix" values="0 0 0 0 0 0 0 0 0 0 0 0 0 0 0 0 0 0 127 0" result="hardAlpha"/>
<feOffset dx="-1" dy="-1"/>
<feGaussianBlur stdDeviation="1.5"/>
<feComposite in2="hardAlpha" operator="out"/>
<feColorMatrix type="matrix" values="0 0 0 0 0.901961 0 0 0 0 0.94902 0 0 0 0 0.945098 0 0 0 0.9 0"/>
<feBlend mode="normal" in2="effect1_dropShadow_94_785" result="effect2_dropShadow_94_785"/>
<feBlend mode="normal" in="SourceGraphic" in2="effect2_dropShadow_94_785" result="shape"/>
</filter>
<linearGradient id="paint0_linear_94_785" x1="66.5631" y1="26" x2="93.4369" y2="134" gradientUnits="userSpaceOnUse">
<stop stop-color="#3EBECB"/>
<stop offset="1" stop-color="#009ABD"/>
</linearGradient>
<linearGradient id="paint1_linear_94_785" x1="69.7979" y1="39" x2="90.2021" y2="121" gradientUnits="userSpaceOnUse">
<stop stop-color="#3EBECB"/>
<stop offset="1" stop-color="#009ABD"/>
</linearGradient>
</defs>
</svg>
