<svg width="80" height="80" viewBox="0 0 80 80" fill="none" xmlns="http://www.w3.org/2000/svg">
<g filter="url(#filter0_dd_110_1854)">
<path d="M33.2297 67C32.7253 67 32.2999 66.6244 32.2374 66.1239L31.3419 58.9494C31.2965 58.5851 31.0529 58.2793 30.7208 58.123C30.4348 57.9883 30.1582 57.8389 29.891 57.6747C29.616 57.5058 29.3442 57.3302 29.0757 57.1478C28.7865 56.9514 28.4177 56.909 28.096 57.0461L21.4878 59.8628C21.021 60.0618 20.4791 59.8795 20.2274 59.4389L13.4336 47.5471C13.1853 47.1125 13.2966 46.5612 13.6941 46.257L19.4111 41.8814C19.6932 41.6655 19.8325 41.3164 19.8202 40.9614C19.8179 40.8958 19.8168 40.8309 19.8168 40.7667V39.2333C19.8168 39.1691 19.8179 39.1042 19.8202 39.0386C19.8325 38.6836 19.6932 38.3345 19.4111 38.1186L13.6948 33.7436C13.297 33.4391 13.1859 32.8873 13.4348 32.4525L20.2284 20.5892C20.4798 20.1502 21.0195 19.9681 21.4855 20.165L28.1287 22.9722C28.4497 23.1078 28.817 23.0648 29.1063 22.8705C29.3769 22.6887 29.652 22.5147 29.9316 22.3484C30.1992 22.1897 30.4687 22.0444 30.7402 21.9124C31.0625 21.7557 31.2954 21.4542 31.3397 21.0985L32.2378 13.8766C32.3 13.3759 32.7255 13 33.2301 13H46.7699C47.2744 13 47.7 13.3759 47.7622 13.8766L48.6583 21.0821C48.7036 21.4465 48.9471 21.7527 49.28 21.9078C49.5657 22.041 49.842 22.1879 50.109 22.3484C50.3841 22.5143 50.6561 22.688 50.9247 22.8694C51.214 23.0646 51.582 23.1074 51.9033 22.9711L58.5139 20.1666C58.9801 19.9689 59.5205 20.1508 59.7722 20.5903L66.5647 32.4517C66.8139 32.8868 66.7023 33.4391 66.3038 33.7434L60.5742 38.1187C60.2915 38.3345 60.1518 38.684 60.1641 39.0393C60.1664 39.1047 60.1675 39.1694 60.1675 39.2333V40C60.1675 40.2664 60.1649 40.522 60.1597 40.7667C60.1588 40.8058 60.1572 40.8451 60.1548 40.8847C60.1307 41.2828 60.2576 41.6895 60.5746 41.9316L66.2385 46.2567C66.6369 46.5609 66.7485 47.1132 66.4994 47.5483L59.6928 59.4382C59.4404 59.8791 58.8976 60.0607 58.4307 59.8604L51.8734 57.0479C51.5514 56.9097 51.1816 56.9519 50.8912 57.1481C50.6214 57.3303 50.3471 57.5059 50.0684 57.6747C49.8005 57.8371 49.5308 57.9849 49.2591 58.1184C48.9375 58.2763 48.7045 58.5774 48.6601 58.9329L47.7626 66.1239C47.7001 66.6244 47.2747 67 46.7703 67H33.2297ZM40.0838 49.2618C42.6146 49.2618 44.7745 48.3576 46.5635 46.5494C48.3525 44.7411 49.247 42.558 49.247 40C49.247 37.442 48.3525 35.2589 46.5635 33.4506C44.7745 31.6424 42.6146 30.7382 40.0838 30.7382C37.5198 30.7382 35.3516 31.6424 33.5792 33.4506C31.8068 35.2589 30.9206 37.442 30.9206 40C30.9206 42.558 31.8068 44.7411 33.5792 46.5494C35.3516 48.3576 37.5198 49.2618 40.0838 49.2618Z" fill="url(#paint0_linear_110_1854)"/>
<path d="M58.5137 20.167C58.9798 19.9692 59.5207 20.1505 59.7725 20.5898L66.5645 32.4521C66.8134 32.8872 66.7021 33.4389 66.3037 33.7432L60.5742 38.1191C60.2918 38.3349 60.1518 38.6839 60.1641 39.0391C60.1663 39.1045 60.168 39.1695 60.168 39.2334V40C60.168 40.2663 60.1654 40.5219 60.1602 40.7666C60.1593 40.8056 60.1577 40.8452 60.1553 40.8848C60.1312 41.2828 60.2574 41.6896 60.5742 41.9316L66.2383 46.2568C66.6367 46.5611 66.748 47.1128 66.499 47.5479L59.6924 59.4385C59.4399 59.8791 58.8974 60.0605 58.4307 59.8604L51.873 57.0479C51.5511 56.9099 51.1819 56.9524 50.8916 57.1484C50.6218 57.3307 50.3471 57.506 50.0684 57.6748C49.8005 57.8371 49.5305 57.9847 49.2588 58.1182C48.9374 58.2761 48.7046 58.5773 48.6602 58.9326L47.7627 66.124C47.7002 66.6244 47.2748 66.9999 46.7705 67H33.2295C32.7252 66.9999 32.2998 66.6244 32.2373 66.124L31.3418 58.9492C31.2963 58.585 31.0528 58.2794 30.7207 58.123C30.7085 58.1173 30.6968 58.1103 30.6846 58.1045L31 58L39 60.25L48.5 58L51 56.75L56.75 51L60 42.25L59.75 39.75V38.5L57 29.875L51 23.5L51.5771 23.0459C51.6879 23.0387 51.7982 23.0153 51.9033 22.9707L58.5137 20.167ZM28 55.75L28.6729 56.9844C28.4809 56.9495 28.2805 56.9671 28.0957 57.0459L21.4873 59.8623C21.0205 60.0611 20.4792 59.879 20.2275 59.4385L20.0303 59.0938L25.5 56.75L22 49L28 55.75ZM46.7695 13C47.2741 13 47.7004 13.3762 47.7627 13.877L48.6582 21.082C48.6654 21.1398 48.6796 21.1955 48.6963 21.25H46.25L41 19.75L46.25 19.5L45.5 13H46.7695Z" fill="#006D92"/>
<path d="M40 19.5C51.3218 19.5 60.5 28.6782 60.5 40C60.5 51.3218 51.3218 60.5 40 60.5C28.6782 60.5 19.5 51.3218 19.5 40C19.5 28.6782 28.6782 19.5 40 19.5ZM40 30.5C34.7533 30.5 30.5 34.7533 30.5 40C30.5 45.2467 34.7533 49.5 40 49.5C45.2467 49.5 49.5 45.2467 49.5 40C49.5 34.7533 45.2467 30.5 40 30.5Z" fill="url(#paint1_linear_110_1854)"/>
<circle cx="40" cy="40" r="9.75" stroke="#006D92" stroke-width="1.5"/>
<path d="M18.5 28.5L21.5 23" stroke="#BAE3E4" stroke-width="1.5" stroke-linecap="round"/>
<path d="M16.25 47.75L17.5 49.75" stroke="#BAE3E4" stroke-width="1.5" stroke-linecap="round"/>
</g>
<defs>
<filter id="filter0_dd_110_1854" x="-11.85" y="-11.85" width="103.7" height="103.7" filterUnits="userSpaceOnUse" color-interpolation-filters="sRGB">
<feFlood flood-opacity="0" result="BackgroundImageFix"/>
<feColorMatrix in="SourceAlpha" type="matrix" values="0 0 0 0 0 0 0 0 0 0 0 0 0 0 0 0 0 0 127 0" result="hardAlpha"/>
<feOffset dx="0.5" dy="0.5"/>
<feGaussianBlur stdDeviation="0.75"/>
<feComposite in2="hardAlpha" operator="out"/>
<feColorMatrix type="matrix" values="0 0 0 0 0.0313726 0 0 0 0 0.301961 0 0 0 0 0.427451 0 0 0 0.5 0"/>
<feBlend mode="normal" in2="BackgroundImageFix" result="effect1_dropShadow_110_1854"/>
<feColorMatrix in="SourceAlpha" type="matrix" values="0 0 0 0 0 0 0 0 0 0 0 0 0 0 0 0 0 0 127 0" result="hardAlpha"/>
<feOffset dx="-0.5" dy="-0.5"/>
<feGaussianBlur stdDeviation="0.75"/>
<feComposite in2="hardAlpha" operator="out"/>
<feColorMatrix type="matrix" values="0 0 0 0 0.901961 0 0 0 0 0.94902 0 0 0 0 0.945098 0 0 0 0.9 0"/>
<feBlend mode="normal" in2="effect1_dropShadow_110_1854" result="effect2_dropShadow_110_1854"/>
<feBlend mode="normal" in="SourceGraphic" in2="effect2_dropShadow_110_1854" result="shape"/>
</filter>
<linearGradient id="paint0_linear_110_1854" x1="33.2816" y1="13" x2="46.7184" y2="67" gradientUnits="userSpaceOnUse">
<stop stop-color="#3EBECB"/>
<stop offset="1" stop-color="#009ABD"/>
</linearGradient>
<linearGradient id="paint1_linear_110_1854" x1="34.899" y1="19.5" x2="45.101" y2="60.5" gradientUnits="userSpaceOnUse">
<stop stop-color="#3EBECB"/>
<stop offset="1" stop-color="#009ABD"/>
</linearGradient>
</defs>
</svg>
