<svg width="24" height="24" viewBox="0 0 24 24" fill="none" xmlns="http://www.w3.org/2000/svg">
<path d="M14.1554 20.8267V18.675C15.6514 18.2336 16.8587 17.3973 17.7774 16.166C18.696 14.9346 19.1554 13.5376 19.1554 11.975C19.1554 10.4123 18.696 9.01531 17.7774 7.78398C16.8587 6.55265 15.6514 5.71631 14.1554 5.27498V3.12323C16.2459 3.5939 17.9501 4.65173 19.2681 6.29673C20.586 7.94173 21.2449 9.83448 21.2449 11.975C21.2449 14.1155 20.586 16.0082 19.2681 17.6532C17.9501 19.2982 16.2459 20.3561 14.1554 20.8267ZM2.75488 15.2032V8.79673H6.87438L12.1554 3.51573V20.4842L6.87438 15.2032H2.75488ZM14.1554 16.0717V7.87823C14.9545 8.2569 15.586 8.8169 16.0496 9.55823C16.5131 10.2994 16.7449 11.1133 16.7449 12C16.7449 12.87 16.5131 13.6724 16.0496 14.4072C15.586 15.1422 14.9545 15.6971 14.1554 16.0717Z" fill="#006D92"/>
</svg>
