<svg width="24" height="24" viewBox="0 0 24 24" fill="none" xmlns="http://www.w3.org/2000/svg">
<path d="M14.1554 20.8268V18.675C15.6514 18.2337 16.8587 17.3974 17.7774 16.166C18.696 14.9347 19.1554 13.5377 19.1554 11.975C19.1554 10.4124 18.696 9.01537 17.7774 7.78404C16.8587 6.55271 15.6514 5.71637 14.1554 5.27504V3.12329C16.2459 3.59396 17.9501 4.65179 19.2681 6.29679C20.586 7.94179 21.2449 9.83454 21.2449 11.975C21.2449 14.1155 20.586 16.0083 19.2681 17.6533C17.9501 19.2983 16.2459 20.3561 14.1554 20.8268ZM2.75488 15.2033V8.79679H6.87438L12.1554 3.51579V20.4843L6.87438 15.2033H2.75488ZM14.1554 16.0718V7.87829C14.9545 8.25696 15.586 8.81696 16.0496 9.55829C16.5131 10.2995 16.7449 11.1134 16.7449 12C16.7449 12.87 16.5131 13.6725 16.0496 14.4073C15.586 15.1423 14.9545 15.6971 14.1554 16.0718Z" fill="#7DD3D5"/>
</svg>
