<svg width="24" height="24" viewBox="0 0 24 24" fill="none" xmlns="http://www.w3.org/2000/svg">
<path d="M3.98199 18.2033C3.08733 18.2033 2.32683 17.8901 1.70049 17.2638C1.07399 16.6374 0.760742 15.8768 0.760742 14.982V9.012C0.760742 8.11884 1.07399 7.35967 1.70049 6.7345C2.32683 6.10934 3.08733 5.79675 3.98199 5.79675H17.249C18.142 5.79675 18.9011 6.10934 19.5262 6.7345C20.1516 7.35967 20.4642 8.11884 20.4642 9.012V14.982C20.4642 15.8768 20.1516 16.6374 19.5262 17.2638C18.9011 17.8901 18.142 18.2033 17.249 18.2033H3.98199ZM10.0357 15.9283H17.243C17.511 15.9283 17.7357 15.8364 17.917 15.6528C18.0983 15.4691 18.189 15.2435 18.189 14.976V9.018C18.189 8.74984 18.0983 8.52509 17.917 8.34375C17.7357 8.16242 17.511 8.07175 17.243 8.07175H10.0357V15.9283ZM21.4642 14.6018V9.39825H22.1017C22.4209 9.39825 22.6902 9.50809 22.9097 9.72775C23.1294 9.94725 23.2392 10.2166 23.2392 10.5358V13.4643C23.2392 13.7834 23.1294 14.0528 22.9097 14.2723C22.6902 14.4919 22.4209 14.6018 22.1017 14.6018H21.4642Z" fill="#006D92"/>
</svg>
