<svg width="24" height="24" viewBox="0 0 24 24" fill="none" xmlns="http://www.w3.org/2000/svg">
<path d="M8.46588 17L12.0001 13.4658L15.5344 17L17.0001 15.5343L13.4659 12L17.0001 8.46575L15.5344 7L12.0001 10.5343L8.46588 7L7.00013 8.46575L10.5344 12L7.00013 15.5343L8.46588 17ZM12.0001 22.2033C10.585 22.2033 9.25713 21.9356 8.01663 21.4003C6.77596 20.8649 5.69679 20.1385 4.77913 19.221C3.86163 18.3033 3.13521 17.2242 2.59987 15.9835C2.06454 14.743 1.79688 13.4152 1.79688 12C1.79688 10.5848 2.06454 9.257 2.59987 8.0165C3.13521 6.77584 3.86163 5.69667 4.77913 4.779C5.69679 3.8615 6.77596 3.13509 8.01663 2.59975C9.25713 2.06442 10.585 1.79675 12.0001 1.79675C13.4153 1.79675 14.7431 2.06442 15.9836 2.59975C17.2243 3.13509 18.3035 3.8615 19.2211 4.779C20.1386 5.69667 20.865 6.77584 21.4004 8.0165C21.9357 9.257 22.2034 10.5848 22.2034 12C22.2034 13.4152 21.9357 14.743 21.4004 15.9835C20.865 17.2242 20.1386 18.3033 19.2211 19.221C18.3035 20.1385 17.2243 20.8649 15.9836 21.4003C14.7431 21.9356 13.4153 22.2033 12.0001 22.2033Z" fill="#7DD3D5"/>
</svg>
