<svg width="24" height="24" viewBox="0 0 24 24" fill="none" xmlns="http://www.w3.org/2000/svg">
<path d="M8.4623 15.5375C7.4873 14.5625 6.9998 13.3834 6.9998 12C6.9998 10.6167 7.4873 9.43755 8.4623 8.46255C9.4373 7.48755 10.6165 7.00005 11.9998 7.00005C13.3831 7.00005 14.5623 7.48755 15.5373 8.46255C16.5123 9.43755 16.9998 10.6167 16.9998 12C16.9998 13.3834 16.5123 14.5625 15.5373 15.5375C14.5623 16.5125 13.3831 17 11.9998 17C10.6165 17 9.4373 16.5125 8.4623 15.5375ZM5.1373 13.1375H0.862305V10.8625H5.1373V13.1375ZM23.1373 13.1375H18.8623V10.8625H23.1373V13.1375ZM10.8623 5.13755V0.862549H13.1373V5.13755H10.8623ZM10.8623 23.1375V18.8625H13.1373V23.1375H10.8623ZM6.3938 7.9533L3.68355 5.33705L5.2938 3.6588L7.89706 6.33805L6.3938 7.9533ZM18.7058 20.3413L16.0776 17.637L17.5998 16.0588L20.3161 18.663L18.7058 20.3413ZM16.0586 6.40005L18.6628 3.6838L20.3411 5.29405L17.6618 7.8973L16.0586 6.40005ZM3.65855 18.706L6.3628 16.0778L7.94105 17.6L5.3368 20.3163L3.65855 18.706Z" fill="#7DD3D5"/>
</svg>
