<svg width="24" height="24" viewBox="0 0 24 24" fill="none" xmlns="http://www.w3.org/2000/svg">
<path d="M8.4623 15.5375C7.4873 14.5625 6.9998 13.3833 6.9998 12C6.9998 10.6167 7.4873 9.43749 8.4623 8.46249C9.4373 7.48749 10.6165 6.99999 11.9998 6.99999C13.3831 6.99999 14.5623 7.48749 15.5373 8.46249C16.5123 9.43749 16.9998 10.6167 16.9998 12C16.9998 13.3833 16.5123 14.5625 15.5373 15.5375C14.5623 16.5125 13.3831 17 11.9998 17C10.6165 17 9.4373 16.5125 8.4623 15.5375ZM5.1373 13.1375H0.862305V10.8625H5.1373V13.1375ZM23.1373 13.1375H18.8623V10.8625H23.1373V13.1375ZM10.8623 5.13749V0.862488H13.1373V5.13749H10.8623ZM10.8623 23.1375V18.8625H13.1373V23.1375H10.8623ZM6.3938 7.95324L3.68355 5.33699L5.2938 3.65874L7.89706 6.33799L6.3938 7.95324ZM18.7058 20.3412L16.0776 17.637L17.5998 16.0587L20.3161 18.663L18.7058 20.3412ZM16.0586 6.39999L18.6628 3.68374L20.3411 5.29399L17.6618 7.89724L16.0586 6.39999ZM3.65855 18.706L6.3628 16.0777L7.94105 17.6L5.3368 20.3162L3.65855 18.706Z" fill="#006D92"/>
</svg>
