<svg width="24" height="24" viewBox="0 0 24 24" fill="none" xmlns="http://www.w3.org/2000/svg">
<path d="M10.5879 21.4125C10.1962 21.0208 10.0004 20.55 10.0004 20H14.0004C14.0004 20.55 13.8046 21.0208 13.4129 21.4125C13.0212 21.8042 12.5504 22 12.0004 22C11.4504 22 10.9796 21.8042 10.5879 21.4125ZM17.4504 14.6L6.85039 4.05C7.53372 3.41667 8.31289 2.91667 9.18789 2.55C10.0629 2.18333 11.0004 2 12.0004 2C14.0837 2 15.8546 2.72917 17.3129 4.1875C18.7712 5.64583 19.5004 7.41667 19.5004 9.5C19.5004 10.6833 19.2921 11.6958 18.8754 12.5375C18.4587 13.3792 17.9837 14.0667 17.4504 14.6ZM21.2004 21.2L19.7754 22.625L13.1504 16H8.25039C7.10039 15.3167 6.18789 14.4 5.51289 13.25C4.83789 12.1 4.50039 10.85 4.50039 9.5C4.50039 9.16667 4.52122 8.84167 4.56289 8.525C4.60456 8.20833 4.66706 7.9 4.75039 7.6L1.40039 4.2L2.80039 2.8L21.2004 21.2ZM16.1504 17V19H8.00039V17H16.1504Z" fill="#7DD3D5"/>
</svg>
