<svg width="24" height="24" viewBox="0 0 24 24" fill="none" xmlns="http://www.w3.org/2000/svg">
<path d="M9.07676 22.2033L8.66476 18.9375C8.47993 18.8662 8.3046 18.7801 8.13876 18.6793C7.9731 18.5786 7.81051 18.4716 7.65101 18.3583L4.61626 19.638L1.68701 14.5653L4.30976 12.5793C4.2971 12.4786 4.29076 12.3821 4.29076 12.2898V11.7103C4.29076 11.6179 4.2971 11.5214 4.30976 11.4208L1.68701 9.43475L4.61626 4.374L7.66301 5.64775C7.82251 5.53442 7.98626 5.42834 8.15426 5.3295C8.32243 5.23084 8.4926 5.14584 8.66476 5.0745L9.07676 1.79675H14.9233L15.3353 5.0745C15.5201 5.14584 15.6954 5.23084 15.8613 5.3295C16.0269 5.42834 16.1895 5.53442 16.349 5.64775L19.3838 4.374L22.313 9.43475L19.6843 11.4208C19.6969 11.5214 19.7033 11.6179 19.7033 11.7103V12C19.7033 12.1007 19.7023 12.1973 19.7003 12.2898C19.6983 12.3821 19.6846 12.4786 19.6593 12.5793L22.288 14.5653L19.3528 19.638L16.337 18.3583C16.1775 18.4716 16.0138 18.5786 15.8458 18.6793C15.6776 18.7801 15.5074 18.8662 15.3353 18.9375L14.9233 22.2033H9.07676ZM12.032 15.5C12.9987 15.5 13.8237 15.1583 14.507 14.475C15.1903 13.7917 15.532 12.9667 15.532 12C15.532 11.0333 15.1903 10.2083 14.507 9.525C13.8237 8.84167 12.9987 8.5 12.032 8.5C11.0527 8.5 10.2245 8.84167 9.54751 9.525C8.87051 10.2083 8.53201 11.0333 8.53201 12C8.53201 12.9667 8.87051 13.7917 9.54751 14.475C10.2245 15.1583 11.0527 15.5 12.032 15.5Z" fill="#006D92"/>
</svg>
