<svg width="24" height="24" viewBox="0 0 24 24" fill="none" xmlns="http://www.w3.org/2000/svg">
<path d="M7.41038 15.1435H9.08988V10.9583H7.41038V12.2083H5.91038V13.8935H7.41038V15.1435ZM10.0899 13.8935H18.0899V12.2083H10.0899V13.8935ZM14.9104 10.9583H16.5899V9.70825H18.0899V8.02275H16.5899V6.77275H14.9104V10.9583ZM5.91038 9.70825H13.9104V8.02275H5.91038V9.70825ZM7.89263 21.2033V19.2033H4.07187C3.44221 19.2033 2.90563 18.9815 2.46213 18.538C2.01863 18.0945 1.79688 17.5579 1.79688 16.9283V5.07175C1.79688 4.44209 2.01863 3.9055 2.46213 3.462C2.90563 3.0185 3.44221 2.79675 4.07187 2.79675H19.9284C20.558 2.79675 21.0946 3.0185 21.5381 3.462C21.9816 3.9055 22.2034 4.44209 22.2034 5.07175V16.9283C22.2034 17.5579 21.9816 18.0945 21.5381 18.538C21.0946 18.9815 20.558 19.2033 19.9284 19.2033H16.1076V21.2033H7.89263Z" fill="#AC464B"/>
</svg>
