<svg width="24" height="24" viewBox="0 0 24 24" fill="none" xmlns="http://www.w3.org/2000/svg">
<path d="M19.6962 22.6657L10.3978 13.3232C9.61442 13.5106 8.89725 13.7827 8.24625 14.1395C7.59508 14.4962 7.00883 14.9415 6.4875 15.4755L4.25 13.2C4.77133 12.6787 5.33242 12.221 5.93325 11.827C6.53392 11.4328 7.17625 11.0857 7.86025 10.7857L5.74775 8.67324C5.07242 9.03124 4.44792 9.41582 3.87425 9.82699C3.30042 10.238 2.75083 10.7042 2.2255 11.2255L0 8.94999C0.517333 8.43265 1.0605 7.96149 1.6295 7.53649C2.19867 7.11149 2.79425 6.71524 3.41625 6.34774L1.33425 4.26574L2.8 2.79999L21.2 21.2L19.6962 22.6657ZM10.225 20.2625C9.74167 19.7708 9.5 19.1833 9.5 18.5C9.5 17.8 9.74167 17.2083 10.225 16.725C10.7083 16.2417 11.3 16 12 16C12.7 16 13.2917 16.2417 13.775 16.725C14.2583 17.2083 14.5 17.8 14.5 18.5C14.5 19.1833 14.2583 19.7708 13.775 20.2625C13.2917 20.7542 12.7 21 12 21C11.3 21 10.7083 20.7542 10.225 20.2625ZM17.9658 14.9842L17.2527 14.2712L16.5398 13.5582L13.0055 10.03C14.3395 10.1752 15.5781 10.5207 16.7212 11.0667C17.8642 11.6127 18.8738 12.3238 19.75 13.2L17.9658 14.9842ZM21.7745 11.2255C20.4912 9.95815 19.0206 8.96799 17.3628 8.25499C15.7049 7.54182 13.9173 7.18524 12 7.18524C11.7018 7.18524 11.4132 7.19474 11.134 7.21374C10.8548 7.2329 10.5725 7.26349 10.287 7.30549L7.55175 4.56999C8.28508 4.36999 9.01392 4.22499 9.73825 4.13499C10.4628 4.04499 11.2167 3.99999 12 3.99999C14.3667 3.99999 16.573 4.44165 18.619 5.32499C20.665 6.20832 22.4587 7.42065 24 8.96199L21.7745 11.2255Z" fill="#006D92"/>
</svg>
