<svg width="24" height="24" viewBox="0 0 24 24" fill="none" xmlns="http://www.w3.org/2000/svg">
<path d="M19.6962 22.6658L10.3978 13.3233C9.61442 13.5106 8.89725 13.7827 8.24625 14.1395C7.59508 14.4962 7.00883 14.9415 6.4875 15.4755L4.25 13.2C4.77133 12.6787 5.33242 12.221 5.93325 11.827C6.53392 11.4329 7.17625 11.0858 7.86025 10.7858L5.74775 8.6733C5.07242 9.0313 4.44792 9.41588 3.87425 9.82705C3.30042 10.238 2.75083 10.7042 2.2255 11.2255L0 8.95005C0.517333 8.43272 1.0605 7.96155 1.6295 7.53655C2.19867 7.11155 2.79425 6.7153 3.41625 6.3478L1.33425 4.2658L2.8 2.80005L21.2 21.2001L19.6962 22.6658ZM10.225 20.2626C9.74167 19.7709 9.5 19.1834 9.5 18.5001C9.5 17.8001 9.74167 17.2084 10.225 16.7251C10.7083 16.2417 11.3 16.0001 12 16.0001C12.7 16.0001 13.2917 16.2417 13.775 16.7251C14.2583 17.2084 14.5 17.8001 14.5 18.5001C14.5 19.1834 14.2583 19.7709 13.775 20.2626C13.2917 20.7542 12.7 21.0001 12 21.0001C11.3 21.0001 10.7083 20.7542 10.225 20.2626ZM17.9658 14.9843L17.2527 14.2713L16.5398 13.5583L13.0055 10.03C14.3395 10.1752 15.5781 10.5208 16.7212 11.0668C17.8642 11.6128 18.8738 12.3239 19.75 13.2L17.9658 14.9843ZM21.7745 11.2255C20.4912 9.95822 19.0206 8.96805 17.3628 8.25505C15.7049 7.54188 13.9173 7.1853 12 7.1853C11.7018 7.1853 11.4132 7.1948 11.134 7.2138C10.8548 7.23297 10.5725 7.26355 10.287 7.30555L7.55175 4.57005C8.28508 4.37005 9.01392 4.22505 9.73825 4.13505C10.4628 4.04505 11.2167 4.00005 12 4.00005C14.3667 4.00005 16.573 4.44172 18.619 5.32505C20.665 6.20838 22.4587 7.42072 24 8.96205L21.7745 11.2255Z" fill="#AC464B"/>
</svg>
