<svg width="24" height="24" viewBox="0 0 24 24" fill="none" xmlns="http://www.w3.org/2000/svg">
<path d="M10.225 20.275C9.74167 19.7917 9.5 19.2 9.5 18.5C9.5 17.8 9.74167 17.2083 10.225 16.725C10.7083 16.2417 11.3 16 12 16C12.7 16 13.2917 16.2417 13.775 16.725C14.2583 17.2083 14.5 17.8 14.5 18.5C14.5 19.2 14.2583 19.7917 13.775 20.275C13.2917 20.7583 12.7 21 12 21C11.3 21 10.7083 20.7583 10.225 20.275ZM6.4755 15.4755L4.25 13.212C5.23333 12.2287 6.3875 11.4475 7.7125 10.8685C9.0375 10.2895 10.4667 10 12 10C13.5333 10 14.9625 10.2917 16.2875 10.875C17.6125 11.4583 18.7667 12.25 19.75 13.25L17.5245 15.4755C16.7912 14.7582 15.9561 14.1972 15.0193 13.7925C14.0826 13.3877 13.0762 13.1853 12 13.1853C10.9238 13.1853 9.91742 13.3877 8.98075 13.7925C8.04392 14.1972 7.20883 14.7582 6.4755 15.4755ZM2.2255 11.2255L0 9C1.53333 7.43333 3.325 6.20833 5.375 5.325C7.425 4.44167 9.63333 4 12 4C14.3667 4 16.575 4.44167 18.625 5.325C20.675 6.20833 22.4667 7.43333 24 9L21.7745 11.2255C20.4912 9.95817 19.0206 8.968 17.3628 8.255C15.7049 7.54183 13.9173 7.18525 12 7.18525C10.0827 7.18525 8.29508 7.54183 6.63725 8.255C4.97942 8.968 3.50883 9.95817 2.2255 11.2255Z" fill="#006D92"/>
</svg>
